<svg xmlns="http://www.w3.org/2000/svg" version="1.1" xmlns:xlink="http://www.w3.org/1999/xlink" xmlns:svgjs="http://svgjs.dev/svgjs" width="1440" height="560" preserveAspectRatio="none" viewBox="0 0 1440 560">
    <defs>
        <linearGradient x1="15.28%" y1="-39.29%" x2="84.72%" y2="139.29%" gradientUnits="userSpaceOnUse" id="SvgjsLinearGradient1007">
            <stop stop-color="#0e2a47" offset="0"></stop>
            <stop stop-color="#00459e" offset="1"></stop>
        </linearGradient>
        <mask id="SvgjsMask1006">
            <rect width="1440" height="560" fill="#ffffff"></rect>
        </mask>
    </defs>
    <g mask="url(#SvgjsMask1006)" fill="none">
        <rect width="1440" height="560" x="0" y="0" fill="url(#SvgjsLinearGradient1007)"></rect>

        <!-- Prima onda - Movimento verso sinistra -->
        <path d="M 0,253 C 57.6,207.8 172.8,34.8 288,27 C 403.2,19.2 460.8,200.8 576,214 C 691.2,227.2 748.8,93 864,93 C 979.2,93 1036.8,215.4 1152,214 C 1267.2,212.6 1382.4,111.6 1440,86L1440 560L0 560z" fill="#184a7e">
            <animate attributeName="d" dur="5s" repeatCount="indefinite" values="
                M 0,253 C 57.6,207.8 172.8,34.8 288,27 C 403.2,19.2 460.8,200.8 576,214 C 691.2,227.2 748.8,93 864,93 C 979.2,93 1036.8,215.4 1152,214 C 1267.2,212.6 1382.4,111.6 1440,86L1440 560L0 560z;

                M -20,263 C 47.6,217.8 152.8,44.8 268,37 C 383.2,29.2 440.8,210.8 556,224 C 671.2,237.2 728.8,103 844,103 C 959.2,103 1016.8,225.4 1132,224 C 1247.2,222.6 1362.4,121.6 1420,96L1420 560L0 560z;

                M 0,253 C 57.6,207.8 172.8,34.8 288,27 C 403.2,19.2 460.8,200.8 576,214 C 691.2,227.2 748.8,93 864,93 C 979.2,93 1036.8,215.4 1152,214 C 1267.2,212.6 1382.4,111.6 1440,86L1440 560L0 560z
            " />
        </path>

        <!-- Seconda onda - Movimento verso destra -->
        <path d="M 0,315 C 96,339.8 288,434 480,439 C 672,444 768,333.6 960,340 C 1152,346.4 1344,444.8 1440,471L1440 560L0 560z" fill="#2264ab">
            <animate attributeName="d" dur="4s" repeatCount="indefinite" values="
                M 0,315 C 96,339.8 288,434 480,439 C 672,444 768,333.6 960,340 C 1152,346.4 1344,444.8 1440,471L1440 560L0 560z;

                M 20,325 C 116,349.8 308,444 500,449 C 692,454 788,343.6 980,350 C 1172,356.4 1364,454.8 1460,481L1460 560L0 560z;

                M 0,315 C 96,339.8 288,434 480,439 C 672,444 768,333.6 960,340 C 1152,346.4 1344,444.8 1440,471L1440 560L0 560z
            " />
        </path>
    </g>
</svg>
